<svg width="914" height="400" fill="none" xmlns="http://www.w3.org/2000/svg"><style>#CL0 {fill: #333;}@media (prefers-color-scheme: dark) {#CL0 {fill: #EEE;}}</style><path d="M422.299 209c.7 0 1.26-.56 1.26-1.26s-.56-1.26-1.26-1.26h-.672v-5.712c0-2.436-.896-4.872-4.704-4.872-1.876 0-3.052.868-3.584 1.68v-7c0-.784-.588-1.512-1.428-1.512h-2.268c-.7 0-1.26.56-1.26 1.26 0 .728.56 1.26 1.26 1.26h.672v14.896h-.672c-.7 0-1.26.56-1.26 1.26 0 .728.56 1.26 1.26 1.26h4.368c.7 0 1.26-.56 1.26-1.26s-.56-1.26-1.26-1.26h-.672v-4.816c0-1.736.7-3.024 2.8-3.024 1.82 0 2.464 1.092 2.464 2.688v5.152h-.672c-.7 0-1.26.56-1.26 1.26 0 .728.56 1.26 1.26 1.26h4.368Zm4.036-12.712h-.644c-.7 0-1.26.56-1.26 1.26s.56 1.26 1.26 1.26h.644v6.608c0 2.212 1.624 3.808 4.256 3.808.728 0 1.316-.588 1.316-1.316 0-.728-.588-1.316-1.316-1.316-.616 0-1.288-.364-1.288-1.008v-6.776h1.26c.7 0 1.26-.56 1.26-1.26s-.56-1.26-1.26-1.26h-1.26v-2.352c0-.812-.672-1.484-1.484-1.484-.812 0-1.484.672-1.484 1.484v2.352ZM439.036 209c.7 0 1.26-.56 1.26-1.26s-.56-1.26-1.26-1.26h-.672v-4.844c0-1.708.7-2.996 2.8-2.996 1.82 0 2.464 1.092 2.464 2.688v5.152h-.672c-.7 0-1.26.56-1.26 1.26 0 .728.56 1.26 1.26 1.26h4.368c.7 0 1.26-.56 1.26-1.26s-.56-1.26-1.26-1.26h-.672v-5.18c0-1.568.784-2.66 2.8-2.66 1.82 0 2.464 1.092 2.464 2.688v5.152h-.672c-.7 0-1.26.56-1.26 1.26 0 .728.56 1.26 1.26 1.26h4.368c.7 0 1.26-.56 1.26-1.26s-.56-1.26-1.26-1.26h-.672v-5.712c0-2.436-1.036-4.872-4.844-4.872-1.904 0-3.108.616-4.004 1.82-.7-1.092-1.848-1.82-4.144-1.82-1.876 0-3.052.868-3.584 1.68 0-.812-.616-1.288-1.428-1.288h-2.268c-.7 0-1.26.56-1.26 1.26 0 .728.56 1.26 1.26 1.26h.672v7.672h-.672c-.7 0-1.26.56-1.26 1.26 0 .728.56 1.26 1.26 1.26h4.368Zm24.44-2.576h-.924c-.252 0-.476-.196-.476-.504v-15.344c0-.812-.616-1.512-1.428-1.512h-2.268c-.7 0-1.26.56-1.26 1.26 0 .728.56 1.26 1.26 1.26h.672v14.056c0 2.352 1.372 3.584 3.556 3.584h.868c.728 0 1.316-.616 1.316-1.4 0-.784-.588-1.4-1.316-1.4Zm8.469 2.94c2.296 0 3.836-1.008 4.48-1.596.336-.308.476-.672.476-1.036 0-.756-.588-1.344-1.344-1.344-.252 0-.532.056-.84.28-.644.476-1.484 1.12-2.772 1.12-1.96 0-3.024-1.484-3.024-4.172 0-2.632 1.064-4.144 3.024-4.144 1.4 0 2.128.728 2.492 1.092.252.252.588.476 1.036.476.756 0 1.344-.588 1.344-1.344 0-.336-.084-.56-.308-.868-.476-.644-1.988-1.932-4.564-1.932-3.78 0-6.076 2.156-6.076 6.72s2.296 6.748 6.076 6.748Zm18.875-6.72c0-4.592-2.352-6.748-6.132-6.748s-6.132 2.156-6.132 6.748c0 4.564 2.352 6.72 6.132 6.72s6.132-2.156 6.132-6.72Zm-6.132 4.144c-2.016 0-3.08-1.4-3.08-4.144 0-2.772 1.064-4.172 3.08-4.172s3.08 1.4 3.08 4.172c0 2.744-1.064 4.144-3.08 4.144Zm12.016-7.98c.7 0 1.26-.56 1.26-1.26s-.56-1.26-1.26-1.26h-3.808c-.7 0-1.26.56-1.26 1.26 0 .728.56 1.26 1.26 1.26h.308l4.2 9.492c.252.56.756.924 1.4.924.644 0 1.148-.364 1.4-.924l4.2-9.492h.308c.7 0 1.26-.56 1.26-1.26s-.56-1.26-1.26-1.26h-3.808c-.7 0-1.26.56-1.26 1.26 0 .728.56 1.26 1.26 1.26h.252l-2.352 5.992-2.38-5.992h.28Z" id="CL0"/></svg>